<?xml version="1.0" encoding="utf-8"?>
<svg version="1.1" xmlns:xlink="http://www.w3.org/1999/xlink" width="193px" height="98px" xmlns="http://www.w3.org/2000/svg">
  <g transform="matrix(1 0 0 1 -45 -18 )">
    <path d="M 45 18  L 238 18  L 238 116  L 45 116  L 45 18  " fill-rule="nonzero" fill="#cccccc" stroke="none" />
    <path d="M 52 25  L 231 25  L 231 109  L 52 109  L 52 25  " fill-rule="nonzero" fill="#ffffff" stroke="none" />
    <path d="M 152.71 47.4  C 148.594 47.4  145.36 44.166  145.36 40.05  C 145.36 35.934  148.594 32.7  152.71 32.7  C 156.826 32.7  160.06 35.934  160.06 40.05  C 160.06 44.166  156.826 47.4  152.71 47.4  " fill-rule="nonzero" fill="#cccccc" stroke="none" />
    <path d="M 55 107  L 55 63.55  L 98.5 43.8  L 159.4 82.9316062176166  L 194.2 55.65  L 229 82.9316062176166  L 229 107  L 55 107  " fill-rule="nonzero" fill="#169bd5" stroke="none" />
  </g>
</svg>