<?xml version="1.0" encoding="utf-8"?>
<svg version="1.1" xmlns:xlink="http://www.w3.org/1999/xlink" width="352px" height="214px" xmlns="http://www.w3.org/2000/svg">
  <g transform="matrix(1 0 0 1 -84 -799 )">
    <path d="M 84 799  L 436 799  L 436 1013  L 84 1013  L 84 799  " fill-rule="nonzero" fill="#cccccc" stroke="none" />
    <path d="M 99 814  L 421 814  L 421 998  L 99 998  L 99 814  " fill-rule="nonzero" fill="#ffffff" stroke="none" />
    <path d="M 283.09 863.2  C 274.102 863.2  267.04 856.138  267.04 847.15  C 267.04 838.162  274.102 831.1  283.09 831.1  C 292.078 831.1  299.14 838.162  299.14 847.15  C 299.14 856.138  292.078 863.2  283.09 863.2  " fill-rule="nonzero" fill="#cccccc" stroke="none" />
    <path d="M 105 993  L 105 897.85  L 182.75 854.6  L 291.6 929.894318181818  L 353.8 880.55  L 416 929.894318181818  L 416 993  L 105 993  " fill-rule="nonzero" fill="#169bd5" stroke="none" />
  </g>
</svg>