<?xml version="1.0" encoding="utf-8"?>
<svg version="1.1" xmlns:xlink="http://www.w3.org/1999/xlink" width="352px" height="438px" xmlns="http://www.w3.org/2000/svg">
  <g transform="matrix(1 0 0 1 -932 -807 )">
    <path d="M 932 807  L 1284 807  L 1284 1245  L 932 1245  L 932 807  " fill-rule="nonzero" fill="#cccccc" stroke="none" />
    <path d="M 957 832  L 1259 832  L 1259 1220  L 957 1220  L 957 832  " fill-rule="nonzero" fill="#ffffff" stroke="none" />
    <path d="M 1141.44 925.5  C 1126.656 925.5  1115.04 913.884  1115.04 899.1  C 1115.04 884.316  1126.656 872.7  1141.44 872.7  C 1156.224 872.7  1167.84 884.316  1167.84 899.1  C 1167.84 913.884  1156.224 925.5  1141.44 925.5  " fill-rule="nonzero" fill="#cccccc" stroke="none" />
    <path d="M 966 1211  L 966 1007.5  L 1037 915  L 1136.4 989  L 1193.2 970.5  L 1250 989  L 1250 1211  L 966 1211  " fill-rule="nonzero" fill="#169bd5" stroke="none" />
  </g>
</svg>