<?xml version="1.0" encoding="utf-8"?>
<svg version="1.1" xmlns:xlink="http://www.w3.org/1999/xlink" width="26px" height="50px" xmlns="http://www.w3.org/2000/svg">
  <g transform="matrix(1 0 0 1 -156 -3062 )">
    <path d="M 19.1388888888889 0  C 22.087962962963 0  24.375 0.120192307692307  26 0.360576923076922  L 26 8.29326923076923  L 21.275462962963 8.29326923076923  C 19.5501543209877 8.29326923076923  18.3865740740741 8.65384615384616  17.7847222222222 9.375  C 17.1828703703704 10.0961538461538  16.8819444444444 11.1778846153846  16.8819444444444 12.6201923076923  L 16.8819444444444 18.2992788461538  L 25.6990740740741 18.2992788461538  L 24.525462962963 27.1935096153846  L 16.8819444444444 27.1935096153846  L 16.8819444444444 50  L 8 50  L 8 27.1935096153846  L 0 27.1935096153846  L 0 18.2992788461538  L 7.67361111111111 18.2992788461538  L 7.67361111111111 11.7487980769231  C 7.67361111111111 8.02283653846154  8.71682098765432 5.13321314102564  10.8032407407407 3.07992788461539  C 12.8896604938272 1.02664262820513  15.6682098765432 0  19.1388888888889 0  Z " fill-rule="nonzero" fill="#ffffff" stroke="none" transform="matrix(1 0 0 1 156 3062 )" />
  </g>
</svg>