<?xml version="1.0" encoding="utf-8"?>
<svg version="1.1" xmlns:xlink="http://www.w3.org/1999/xlink" width="50px" height="41px" xmlns="http://www.w3.org/2000/svg">
  <g transform="matrix(1 0 0 1 -325 -3071 )">
    <path d="M 44.0989847715736 6.4703125  C 46.0659898477157 6.25677083333333  48.0329949238579 5.72291666666666  50 4.86875  C 48.582910321489 6.96145833333333  46.8697123519459 8.74453125  44.8604060913706 10.21796875  C 44.8815566835871 10.5169270833333  44.8921319796954 10.9653645833333  44.8921319796954 11.56328125  C 44.8921319796954 14.3393229166667  44.4902707275804 17.1100260416667  43.6865482233503 19.875390625  C 42.8828257191201 22.6407552083333  41.6613790186125 25.2940104166667  40.0222081218274 27.83515625  C 38.3830372250423 30.3763020833333  36.4318950930626 32.623828125  34.1687817258883 34.577734375  C 31.905668358714 36.531640625  29.177241962775 38.0904947916667  25.9835025380711 39.254296875  C 22.7897631133672 40.4180989583333  19.3739424703892 41  15.7360406091371 41  C 10.0042301184433 41  4.75888324873096 39.4518229166667  0 36.35546875  C 0.740270727580373 36.4408854166667  1.56514382402707 36.48359375  2.4746192893401 36.48359375  C 7.23350253807107 36.48359375  11.4741962774958 35.01015625  15.1967005076142 32.06328125  C 12.9758883248731 32.0205729166667  10.9877326565144 31.3319010416667  9.23223350253807 29.997265625  C 7.47673434856176 28.6626302083333  6.27115059221658 26.9596354166667  5.61548223350254 24.88828125  C 6.31345177664975 24.9950520833333  6.9585448392555 25.0484375  7.5507614213198 25.0484375  C 8.46023688663283 25.0484375  9.35913705583756 24.9309895833333  10.247461928934 24.69609375  C 7.87859560067682 24.2049479166667  5.91687817258883 23.014453125  4.36230964467005 21.124609375  C 2.80774111675127 19.234765625  2.03045685279188 17.040625  2.03045685279188 14.5421875  L 2.03045685279188 14.4140625  C 3.46869712351946 15.2255208333333  5.01269035532995 15.66328125  6.66243654822335 15.72734375  C 5.26649746192893 14.7877604166667  4.15609137055838 13.5598958333333  3.33121827411168 12.04375  C 2.50634517766497 10.5276041666667  2.09390862944162 8.88333333333333  2.09390862944162 7.1109375  C 2.09390862944162 5.23177083333333  2.55922165820643 3.49140625  3.48984771573604 1.88984375  C 6.04906937394247 5.07161458333333  9.16349407783418 7.61809895833333  12.8331218274112 9.529296875  C 16.5027495769882 11.4404947916667  20.4314720812183 12.5028645833333  24.6192893401015 12.71640625  C 24.4500846023689 11.9049479166667  24.3654822335025 11.11484375  24.3654822335025 10.34609375  C 24.3654822335025 7.48463541666666  25.364847715736 5.044921875  27.363578680203 3.026953125  C 29.36230964467 1.008984375  31.7787648054146 0  34.6129441624365 0  C 37.574027072758 0  40.0697969543147 1.0890625  42.1002538071066 3.2671875  C 44.405668358714 2.81875  46.5736040609137 1.9859375  48.6040609137056 0.768750000000002  C 47.8214890016921 3.22447916666666  46.3197969543147 5.125  44.0989847715736 6.4703125  Z " fill-rule="nonzero" fill="#f05222" stroke="none" transform="matrix(1 0 0 1 325 3071 )" />
  </g>
</svg>