<?xml version="1.0" encoding="utf-8"?>
<svg version="1.1" xmlns:xlink="http://www.w3.org/1999/xlink" width="41px" height="50px" xmlns="http://www.w3.org/2000/svg">
  <g transform="matrix(1 0 0 1 -420 -3062 )">
    <path d="M 25.0371120107962 32.8404017857143  C 25.7564102564103 32.8404017857143  26.1160593792173 33.4635416666667  26.1160593792173 34.7098214285714  L 26.1160593792173 40.5970982142857  C 26.1160593792173 41.8433779761905  25.7564102564103 42.4665178571429  25.0371120107962 42.4665178571429  C 24.6129104813315 42.4665178571429  24.1979307242465 42.2619047619048  23.7921727395412 41.8526785714286  L 23.7921727395412 33.4542410714286  C 24.1979307242465 33.0450148809524  24.6129104813315 32.8404017857143  25.0371120107962 32.8404017857143  Z M 34.2219973009447 32.8404017857143  C 35.0519568151147 32.8404017857143  35.4669365721997 33.4728422619048  35.4669365721997 34.7377232142857  L 35.4669365721997 36.0212053571429  L 32.9770580296896 36.0212053571429  L 32.9770580296896 34.7377232142857  C 32.9770580296896 33.4728422619048  33.3920377867746 32.8404017857143  34.2219973009447 32.8404017857143  Z M 9 44.53125  L 9 28.6551339285714  L 11.7024291497976 28.6551339285714  L 11.7024291497976 26.0323660714286  L 3.07085020242915 26.0323660714286  L 3.07085020242915 28.6551339285714  L 6 28.6551339285714  L 6 44.53125  L 9 44.53125  Z M 16.7098515519568 43.0245535714286  L 16.7098515519568 44.53125  L 19.1720647773279 44.53125  L 19.1720647773279 30.7477678571429  L 17 30.7477678571429  L 17 41.2946428571429  C 16.1565452091768 42.0758928571429  15.6309041835358 42.4665178571429  15.1329284750337 42.4665178571429  C 14.8009446693657 42.4665178571429  14.6072874493927 42.2712053571429  14.5519568151147 41.8805803571429  C 14.5335132703554 41.8247767857143  14.5242914979757 41.499255952381  15 40.9040178571429  L 15 30.7477678571429  L 12 30.7477678571429  L 12 41.6573660714286  C 12.0620782726046 42.5688244047619  12.1358524516419 43.2477678571429  12.2834008097166 43.6941964285714  C 12.5047233468286 44.3824404761905  13.0395861448493 44.7265625  13.8879892037787 44.7265625  C 14.7732793522267 44.7265625  15.7139001349528 44.1592261904762  16.7098515519568 43.0245535714286  Z M 28.3292847503374 43.1919642857143  C 28.4952766531714 42.6897321428571  28.5782726045884 41.7596726190476  28.5782726045884 40.4017857142857  L 28.5782726045884 34.9051339285714  C 28.5782726045884 33.5472470238095  28.4952766531714 32.6264880952381  28.3292847503374 32.1428571428571  C 28.0157444894287 31.1011904761905  27.3609986504723 30.5803571428571  26.3650472334683 30.5803571428571  C 25.4428699955016 30.5803571428571  24.5852451641925 31.0825892857143  23.7921727395412 32.0870535714286  L 23.7921727395412 26.0323660714286  L 21 26.0323660714286  L 21 44.53125  L 23.7921727395412 44.53125  L 23.7921727395412 43.1919642857143  C 24.6221322537112 44.2150297619048  25.4797570850202 44.7265625  26.3650472334683 44.7265625  C 27.3609986504723 44.7265625  28.0157444894287 44.2150297619048  28.3292847503374 43.1919642857143  Z M 37.8738191632929 41.7410714285714  C 37.9107062528115 41.5736607142857  37.9291497975709 41.0342261904762  37.9291497975709 40.1227678571429  L 37.9291497975709 39.7600446428571  L 35.4116059379217 39.7600446428571  C 35.4116059379217 40.7087053571429  35.3931623931624 41.2760416666667  35.3562753036437 41.4620535714286  C 35.2271704903284 42.1316964285714  34.8582995951417 42.4665178571429  34.2496626180837 42.4665178571429  C 33.4012595591543 42.4665178571429  32.9770580296896 41.8247767857143  32.9770580296896 40.5412946428571  L 32.9770580296896 38.1138392857143  L 37.9291497975709 38.1138392857143  L 37.9291497975709 35.2399553571429  C 37.9291497975709 33.7704613095238  37.6801619433198 32.6915922619048  37.1821862348178 32.0033482142857  C 36.4628879892038 31.0546875  35.4853801169591 30.5803571428571  34.2496626180837 30.5803571428571  C 32.9955015744489 30.5803571428571  32.0087719298246 31.0546875  31.2894736842105 32.0033482142857  C 30.7730544309492 32.6915922619048  30.5148448043185 33.7704613095238  30.5148448043185 35.2399553571429  L 30.5148448043185 40.0669642857143  C 30.5148448043185 41.5364583333333  30.7822762033288 42.6153273809524  31.3171390013495 43.3035714285714  C 32.0364372469636 44.2522321428571  33.0323886639676 44.7265625  34.3049932523617 44.7265625  C 35.6329284750337 44.7265625  36.6288798920378 44.2336309523809  37.2928475033738 43.2477678571429  C 37.6248313090418 42.7455357142857  37.8184885290148 42.2433035714286  37.8738191632929 41.7410714285714  Z M 19.919028340081 16.6015625  C 20.7121007647323 16.6015625  21.108636977058 15.9505208333333  21.108636977058 14.6484375  L 21.108636977058 8.7890625  C 21.108636977058 7.50558035714286  20.7121007647323 6.86383928571428  19.919028340081 6.86383928571428  C 19.1259559154296 6.86383928571428  18.7294197031039 7.50558035714286  18.7294197031039 8.7890625  L 18.7294197031039 14.6484375  C 18.7294197031039 15.9505208333333  19.1259559154296 16.6015625  19.919028340081 16.6015625  Z M 40.280701754386 25.8370535714286  C 40.7602339181287 27.9203869047619  41 31.1755952380952  41 35.6026785714286  C 41 39.9553571428571  40.7602339181287 43.2105654761905  40.280701754386 45.3683035714286  C 40.0224921277553 46.4657738095238  39.4876293297346 47.3865327380952  38.6761133603239 48.1305803571429  C 37.8645973909132 48.8746279761905  36.9239766081871 49.3024553571429  35.8542510121458 49.4140625  C 32.4606387764283 49.8046875  27.342555105713 50  20.5 50  C 13.657444894287 50  8.53936122357175 49.8046875  5.14574898785425 49.4140625  C 4.07602339181287 49.3024553571429  3.13079172289699 48.8746279761905  2.31005398110661 48.1305803571429  C 1.48931623931624 47.3865327380952  0.95906432748538 46.4657738095238  0.719298245614035 45.3683035714286  C 0.239766081871345 43.2849702380952  0 40.0297619047619  0 35.6026785714286  C 0 31.25  0.239766081871345 27.9947916666667  0.719298245614035 25.8370535714286  C 0.977507872244714 24.7395833333333  1.51237067026541 23.8188244047619  2.32388663967611 23.0747767857143  C 3.13540260908682 22.3307291666667  4.08524516419253 21.8936011904762  5.17341430499325 21.7633928571429  C 8.54858299595142 21.391369047619  13.657444894287 21.2053571428571  20.5 21.2053571428571  C 27.342555105713 21.2053571428571  32.4606387764283 21.391369047619  35.8542510121458 21.7633928571429  C 36.9239766081871 21.8936011904762  37.869208277103 22.3307291666667  38.6899460188934 23.0747767857143  C 39.5106837606838 23.8188244047619  40.0409356725146 24.7395833333333  40.280701754386 25.8370535714286  Z M 11.5087719298246 7.33816964285715  L 13.3900134952767 0  L 16.2118758434548 0  L 12.8643724696356 11.1328125  L 12.8643724696356 18.6941964285714  L 10.0978407557355 18.6941964285714  L 10.0978407557355 11.1328125  C 9.83963112910481 9.7563244047619  9.27710301394512 7.78459821428572  8.41025641025641 5.21763392857143  C 7.72784525416104 3.30171130952381  7.12843004948268 1.5625  6.61201079622132 0  L 9.54453441295547 0  L 11.5087719298246 7.33816964285715  Z M 22.8515519568151 6.02678571428572  C 23.3679712100765 6.71502976190476  23.6261808367072 7.8031994047619  23.6261808367072 9.29129464285715  L 23.6261808367072 14.1741071428571  C 23.6261808367072 15.6808035714286  23.3679712100765 16.7782738095238  22.8515519568151 17.4665178571429  C 22.1506972559604 18.4151785714286  21.1731893837157 18.8895089285714  19.919028340081 18.8895089285714  C 18.6833108412056 18.8895089285714  17.7150247413405 18.4151785714286  17.0141700404858 17.4665178571429  C 16.4977507872245 16.7596726190476  16.2395411605938 15.6622023809524  16.2395411605938 14.1741071428571  L 16.2395411605938 9.29129464285715  C 16.2395411605938 7.8031994047619  16.4977507872245 6.71502976190476  17.0141700404858 6.02678571428572  C 17.7150247413405 5.078125  18.6833108412056 4.60379464285715  19.919028340081 4.60379464285715  C 21.1731893837157 4.60379464285715  22.1506972559604 5.078125  22.8515519568151 6.02678571428572  Z M 30 4.77120535714286  L 32.8940620782726 4.77120535714286  L 32.8940620782726 18.6941964285714  L 30.3765182186235 18.6941964285714  L 30.3765182186235 17.1595982142857  C 29.3990103463788 18.3128720238095  28.4491677912731 18.8895089285714  27.5269905533063 18.8895089285714  C 26.678587494377 18.8895089285714  26.1345029239766 18.5453869047619  25.8947368421053 17.8571428571429  C 25.7471884840306 17.4107142857143  25.6734143049933 16.7131696428571  25 15.7645089285714  L 25 4.77120535714286  L 28 4.77120535714286  L 28 15.0111607142857  C 28.1909581646424 15.625  28.200179937022 15.9505208333333  28.2186234817814 15.9877232142857  C 28.2739541160594 16.3969494047619  28.4676113360324 16.6015625  28.7995951417004 16.6015625  C 29.2975708502024 16.6015625  29.8232118758435 16.2016369047619  30 15.4017857142857  L 30 4.77120535714286  Z " fill-rule="nonzero" fill="#f05222" stroke="none" transform="matrix(1 0 0 1 420 3062 )" />
  </g>
</svg>