<?xml version="1.0" encoding="utf-8"?>
<svg version="1.1" xmlns:xlink="http://www.w3.org/1999/xlink" width="24px" height="25px" xmlns="http://www.w3.org/2000/svg">
  <g transform="matrix(1 0 0 1 -517 -3762 )">
    <path d="M 17.890625 15.2099609375  C 17.9427083333333 15.2587890625  17.96875 15.3211805555556  17.96875 15.3971354166667  L 17.96875 17.1712239583333  C 17.96875 17.7137586805556  17.7786458333333 18.1966145833333  17.3984375 18.6197916666667  C 17.0182291666667 19.04296875  16.5286458333333 19.3712022569444  15.9296875 19.6044921875  C 15.3307291666667 19.8377821180556  14.7161458333333 20.0141059027778  14.0859375 20.1334635416667  C 13.4557291666667 20.2528211805556  12.84375 20.3125  12.25 20.3125  C 10.1145833333333 20.3125  8.33072916666667 19.5583767361111  6.8984375 18.0501302083333  C 5.46614583333333 16.5418836805556  4.75 14.6647135416667  4.75 12.4186197916667  C 4.75 10.2159288194444  5.45833333333333 8.37673611111111  6.875 6.90104166666667  C 8.29166666666667 5.42534722222222  10.0572916666667 4.6875  12.171875 4.6875  C 12.5260416666667 4.6875  12.9192708333333 4.7119140625  13.3515625 4.7607421875  C 13.7838541666667 4.8095703125  14.2682291666667 4.9072265625  14.8046875 5.0537109375  C 15.3411458333333 5.2001953125  15.8229166666667 5.38465711805556  16.25 5.60709635416667  C 16.6770833333333 5.82953559027778  17.0364583333333 6.13606770833333  17.328125 6.52669270833333  C 17.6197916666667 6.91731770833333  17.765625 7.35677083333333  17.765625 7.84505208333333  L 17.765625 9.619140625  C 17.765625 9.79275173611111  17.6822916666667 9.87955729166667  17.515625 9.87955729166667  L 15.671875 9.87955729166667  C 15.5052083333333 9.87955729166667  15.421875 9.79275173611111  15.421875 9.619140625  L 15.421875 8.47981770833333  C 15.421875 8.01323784722222  15.0807291666667 7.64702690972222  14.3984375 7.38118489583333  C 13.7161458333333 7.11534288194444  13 6.982421875  12.25 6.982421875  C 10.7916666666667 6.982421875  9.6015625 7.47884114583333  8.6796875 8.4716796875  C 7.7578125 9.46451822916667  7.296875 10.7530381944444  7.296875 12.3372395833333  C 7.296875 13.9756944444444  7.7734375 15.3293185763889  8.7265625 16.3981119791667  C 9.6796875 17.4669053819444  10.8958333333333 18.0013020833333  12.375 18.0013020833333  C 13.0833333333333 18.0013020833333  13.8020833333333 17.87109375  14.53125 17.6106770833333  C 15.2604166666667 17.3502604166667  15.625 16.9921875  15.625 16.5364583333333  L 15.625 15.3971354166667  C 15.625 15.3211805555556  15.6484375 15.2587890625  15.6953125 15.2099609375  C 15.7421875 15.1611328125  15.796875 15.13671875  15.859375 15.13671875  L 17.71875 15.13671875  C 17.78125 15.13671875  17.8385416666667 15.1611328125  17.890625 15.2099609375  Z M 15.8828125 2.91341145833333  C 14.6484375 2.36002604166667  13.3541666666667 2.08333333333333  12 2.08333333333333  C 10.6458333333333 2.08333333333333  9.3515625 2.36002604166667  8.1171875 2.91341145833333  C 6.8828125 3.466796875  5.8203125 4.20735677083333  4.9296875 5.13509114583333  C 4.0390625 6.06282552083333  3.328125 7.16959635416667  2.796875 8.45540364583333  C 2.265625 9.7412109375  2 11.0894097222222  2 12.5  C 2 13.9105902777778  2.265625 15.2587890625  2.796875 16.5445963541667  C 3.328125 17.8304036458333  4.0390625 18.9371744791667  4.9296875 19.8649088541667  C 5.8203125 20.7926432291667  6.8828125 21.533203125  8.1171875 22.0865885416667  C 9.3515625 22.6399739583333  10.6458333333333 22.9166666666667  12 22.9166666666667  C 13.3541666666667 22.9166666666667  14.6484375 22.6399739583333  15.8828125 22.0865885416667  C 17.1171875 21.533203125  18.1796875 20.7926432291667  19.0703125 19.8649088541667  C 19.9609375 18.9371744791667  20.671875 17.8304036458333  21.203125 16.5445963541667  C 21.734375 15.2587890625  22 13.9105902777778  22 12.5  C 22 11.0894097222222  21.734375 9.7412109375  21.203125 8.45540364583333  C 20.671875 7.16959635416667  19.9609375 6.06282552083333  19.0703125 5.13509114583333  C 18.1796875 4.20735677083333  17.1171875 3.466796875  15.8828125 2.91341145833333  Z M 22.390625 6.2255859375  C 23.4635416666667 8.14073350694444  24 10.2322048611111  24 12.5  C 24 14.7677951388889  23.4635416666667 16.8592664930556  22.390625 18.7744140625  C 21.3177083333333 20.6895616319444  19.8619791666667 22.2059461805556  18.0234375 23.3235677083333  C 16.1848958333333 24.4411892361111  14.1770833333333 25  12 25  C 9.82291666666667 25  7.81510416666667 24.4411892361111  5.9765625 23.3235677083333  C 4.13802083333333 22.2059461805556  2.68229166666667 20.6895616319444  1.609375 18.7744140625  C 0.536458333333333 16.8592664930556  0 14.7677951388889  0 12.5  C 0 10.2322048611111  0.536458333333333 8.14073350694444  1.609375 6.2255859375  C 2.68229166666667 4.31043836805556  4.13802083333333 2.79405381944444  5.9765625 1.67643229166667  C 7.81510416666667 0.558810763888887  9.82291666666667 0  12 0  C 14.1770833333333 0  16.1848958333333 0.558810763888887  18.0234375 1.67643229166667  C 19.8619791666667 2.79405381944444  21.3177083333333 4.31043836805556  22.390625 6.2255859375  Z " fill-rule="nonzero" fill="#3b51e3" stroke="none" transform="matrix(1 0 0 1 517 3762 )" />
  </g>
</svg>