<?xml version="1.0" encoding="utf-8"?>
<svg version="1.1" xmlns:xlink="http://www.w3.org/1999/xlink" width="31px" height="31px" xmlns="http://www.w3.org/2000/svg">
  <g transform="matrix(1 0 0 1 -1253 -56 )">
    <path d="M 21.6584821428571 27.2720424107143  C 23.5613839285714 26.262927827381  25.1240699404762 24.8934151785714  26.3465401785714 23.1635044642857  C 26.0928199404762 21.3759300595238  25.5882626488095 19.8910900297619  24.8328683035714 18.708984375  C 24.0774739583333 17.5268787202381  23.0135788690476 16.8435639880952  21.6411830357143 16.6590401785714  C 20.8684895833333 17.512462797619  19.9487537202381 18.178478422619  18.8819754464286 18.6570870535714  C 17.8151971726191 19.1356956845238  16.6878720238095 19.375  15.5 19.375  C 14.3121279761905 19.375  13.184802827381 19.1356956845238  12.1180245535714 18.6570870535714  C 11.0512462797619 18.178478422619  10.1315104166667 17.512462797619  9.35881696428572 16.6590401785714  C 7.98642113095238 16.8435639880952  6.92252604166667 17.5268787202381  6.16713169642857 18.708984375  C 5.41173735119048 19.8910900297619  4.90718005952381 21.3759300595238  4.65345982142857 23.1635044642857  C 5.87593005952381 24.8934151785714  7.43861607142857 26.262927827381  9.34151785714286 27.2720424107143  C 11.2444196428571 28.2811569940476  13.2972470238095 28.7857142857143  15.5 28.7857142857143  C 17.7027529761905 28.7857142857143  19.7555803571429 28.2811569940476  21.6584821428571 27.2720424107143  Z M 20.1967075892857 15.7681361607143  C 21.494140625 14.470703125  22.1428571428571 12.9051339285714  22.1428571428571 11.0714285714286  C 22.1428571428571 9.23772321428571  21.494140625 7.67215401785714  20.1967075892857 6.37472098214286  C 18.8992745535714 5.07728794642857  17.3337053571429 4.42857142857143  15.5 4.42857142857143  C 13.6662946428571 4.42857142857143  12.1007254464286 5.07728794642857  10.8032924107143 6.37472098214286  C 9.505859375 7.67215401785714  8.85714285714286 9.23772321428571  8.85714285714286 11.0714285714286  C 8.85714285714286 12.9051339285714  9.505859375 14.470703125  10.8032924107143 15.7681361607143  C 12.1007254464286 17.0655691964286  13.6662946428571 17.7142857142857  15.5 17.7142857142857  C 17.3337053571429 17.7142857142857  18.8992745535714 17.0655691964286  20.1967075892857 15.7681361607143  Z M 29.7717633928571 9.47991071428571  C 30.5905877976191 11.3943452380952  31 13.4010416666667  31 15.5  C 31 17.5989583333333  30.5905877976191 19.6027715773809  29.7717633928571 21.5114397321429  C 28.9529389880952 23.4201078869048  27.8544456845238 25.0692894345238  26.4762834821429 26.458984375  C 25.0981212797619 27.8486793154762  23.4518229166667 28.9529389880952  21.5373883928571 29.7717633928571  C 19.6229538690476 30.590587797619  17.6104910714286 31  15.5 31  C 13.4010416666667 31  11.3943452380952 30.590587797619  9.47991071428572 29.7717633928571  C 7.56547619047619 28.9529389880952  5.91629464285714 27.8515625  4.53236607142857 26.4676339285714  C 3.1484375 25.0837053571429  2.04706101190476 23.4345238095238  1.22823660714286 21.5200892857143  C 0.409412202380952 19.6056547619048  0 17.5989583333333  0 15.5  C 0 13.4010416666667  0.409412202380952 11.3943452380952  1.22823660714286 9.47991071428571  C 2.04706101190476 7.56547619047619  3.1484375 5.91629464285714  4.53236607142857 4.53236607142857  C 5.91629464285714 3.1484375  7.56547619047619 2.04706101190476  9.47991071428572 1.22823660714286  C 11.3943452380952 0.409412202380952  13.4010416666667 0  15.5 0  C 17.5989583333333 0  19.6056547619048 0.409412202380952  21.5200892857143 1.22823660714286  C 23.4345238095238 2.04706101190476  25.0837053571429 3.1484375  26.4676339285714 4.53236607142857  C 27.8515625 5.91629464285714  28.9529389880952 7.56547619047619  29.7717633928571 9.47991071428571  Z " fill-rule="nonzero" fill="#f05222" stroke="none" transform="matrix(1 0 0 1 1253 56 )" />
  </g>
</svg>