<?xml version="1.0" encoding="utf-8"?>
<svg version="1.1" xmlns:xlink="http://www.w3.org/1999/xlink" width="31px" height="31px" xmlns="http://www.w3.org/2000/svg">
  <g transform="matrix(1 0 0 1 -1204 -56 )">
    <path d="M 15.5 29.6160714285714  C 15.698717948718 29.6160714285714  15.7980769230769 29.5238095238095  15.7980769230769 29.3392857142857  C 15.7980769230769 29.1547619047619  15.698717948718 29.0625  15.5 29.0625  C 14.7672275641026 29.0625  14.1369190705128 28.8174293154762  13.6090745192308 28.3272879464286  C 13.0812299679487 27.837146577381  12.8173076923077 27.2518601190476  12.8173076923077 26.5714285714286  C 12.8173076923077 26.3869047619048  12.7179487179487 26.2946428571429  12.5192307692308 26.2946428571429  C 12.3205128205128 26.2946428571429  12.2211538461538 26.3869047619048  12.2211538461538 26.5714285714286  C 12.2211538461538 27.413318452381  12.5409655448718 28.1312313988095  13.1805889423077 28.7251674107143  C 13.8202123397436 29.319103422619  14.5933493589744 29.6160714285714  15.5 29.6160714285714  Z M 29.3046875 22.8348214285714  C 29.8139022435897 23.3653273809524  30.3790064102564 23.8727678571429  31 24.3571428571429  C 31 24.9568452380952  30.7640224358974 25.475818452381  30.2920673076923 25.9140625  C 29.8201121794872 26.352306547619  29.261217948718 26.5714285714286  28.6153846153846 26.5714285714286  L 20.2692307692308 26.5714285714286  C 20.2692307692308 27.7938988095238  19.8034855769231 28.8376116071429  18.8719951923077 29.7025669642857  C 17.9405048076923 30.5675223214286  16.8165064102564 31  15.5 31  C 14.1834935897436 31  13.0594951923077 30.5675223214286  12.1280048076923 29.7025669642857  C 11.1965144230769 28.8376116071429  10.7307692307692 27.7938988095238  10.7307692307692 26.5714285714286  L 2.38461538461538 26.5714285714286  C 1.73878205128205 26.5714285714286  1.17988782051282 26.352306547619  0.707932692307692 25.9140625  C 0.235977564102564 25.475818452381  0 24.9568452380952  0 24.3571428571429  C 0.62099358974359 23.8727678571429  1.18609775641026 23.3653273809524  1.6953125 22.8348214285714  C 2.20452724358974 22.3043154761905  2.7323717948718 21.615234375  3.27884615384615 20.767578125  C 3.82532051282051 19.919921875  4.28796073717949 19.0059523809524  4.66676682692308 18.0256696428571  C 5.04557291666667 17.0453869047619  5.35606971153846 15.8575148809524  5.59825721153846 14.4620535714286  C 5.84044471153846 13.0665922619048  5.96153846153846 11.5673363095238  5.96153846153846 9.96428571428571  C 5.96153846153846 8.21130952380952  6.68810096153846 6.58231026785714  8.14122596153846 5.07728794642857  C 9.59435096153846 3.572265625  11.5008012820513 2.65829613095238  13.8605769230769 2.33537946428571  C 13.7612179487179 2.11625744047619  13.7115384615385 1.89136904761905  13.7115384615385 1.66071428571429  C 13.7115384615385 1.19940476190476  13.8854166666667 0.807291666666666  14.2331730769231 0.484375  C 14.5809294871795 0.161458333333334  15.0032051282051 0  15.5 0  C 15.9967948717949 0  16.4190705128205 0.161458333333334  16.7668269230769 0.484375  C 17.1145833333333 0.807291666666666  17.2884615384615 1.19940476190476  17.2884615384615 1.66071428571429  C 17.2884615384615 1.89136904761905  17.2387820512821 2.11625744047619  17.1394230769231 2.33537946428571  C 19.4991987179487 2.65829613095238  21.4056490384615 3.572265625  22.8587740384615 5.07728794642857  C 24.3118990384615 6.58231026785714  25.0384615384615 8.21130952380952  25.0384615384615 9.96428571428571  C 25.0384615384615 11.5673363095238  25.1595552884615 13.0665922619048  25.4017427884615 14.4620535714286  C 25.6439302884615 15.8575148809524  25.9544270833333 17.0453869047619  26.3332331730769 18.0256696428571  C 26.7120392628205 19.0059523809524  27.1746794871795 19.919921875  27.7211538461538 20.767578125  C 28.2676282051282 21.615234375  28.7954727564103 22.3043154761905  29.3046875 22.8348214285714  Z " fill-rule="nonzero" fill="#3b51e3" stroke="none" transform="matrix(1 0 0 1 1204 56 )" />
  </g>
</svg>